<svg id="visual" viewBox="0 0 900 600" width="900" height="600" xmlns="http://www.w3.org/2000/svg" xmlns:xlink="http://www.w3.org/1999/xlink" version="1.1"><rect x="0" y="0" width="900" height="600" fill="#FFFFFF"></rect><path d="M0 391L21.5 386.7C43 382.3 86 373.7 128.8 367.3C171.7 361 214.3 357 257.2 360C300 363 343 373 385.8 373C428.7 373 471.3 363 514.2 355.7C557 348.3 600 343.7 642.8 349.7C685.7 355.7 728.3 372.3 771.2 383.2C814 394 857 399 878.5 401.5L900 404L900 601L878.5 601C857 601 814 601 771.2 601C728.3 601 685.7 601 642.8 601C600 601 557 601 514.2 601C471.3 601 428.7 601 385.8 601C343 601 300 601 257.2 601C214.3 601 171.7 601 128.8 601C86 601 43 601 21.5 601L0 601Z" fill="#ffbe0b"></path><path d="M0 435L21.5 434.7C43 434.3 86 433.7 128.8 427.8C171.7 422 214.3 411 257.2 404.3C300 397.7 343 395.3 385.8 396.2C428.7 397 471.3 401 514.2 410.5C557 420 600 435 642.8 442.8C685.7 450.7 728.3 451.3 771.2 444.2C814 437 857 422 878.5 414.5L900 407L900 601L878.5 601C857 601 814 601 771.2 601C728.3 601 685.7 601 642.8 601C600 601 557 601 514.2 601C471.3 601 428.7 601 385.8 601C343 601 300 601 257.2 601C214.3 601 171.7 601 128.8 601C86 601 43 601 21.5 601L0 601Z" fill="#ffb002"></path><path d="M0 469L21.5 470.2C43 471.3 86 473.7 128.8 467.7C171.7 461.7 214.3 447.3 257.2 448.7C300 450 343 467 385.8 475.2C428.7 483.3 471.3 482.7 514.2 480.7C557 478.7 600 475.3 642.8 473.8C685.7 472.3 728.3 472.7 771.2 469.2C814 465.7 857 458.3 878.5 454.7L900 451L900 601L878.5 601C857 601 814 601 771.2 601C728.3 601 685.7 601 642.8 601C600 601 557 601 514.2 601C471.3 601 428.7 601 385.8 601C343 601 300 601 257.2 601C214.3 601 171.7 601 128.8 601C86 601 43 601 21.5 601L0 601Z" fill="#fea200"></path><path d="M0 531L21.5 528.2C43 525.3 86 519.7 128.8 516.2C171.7 512.7 214.3 511.3 257.2 513.5C300 515.7 343 521.3 385.8 523.3C428.7 525.3 471.3 523.7 514.2 524.2C557 524.7 600 527.3 642.8 529.3C685.7 531.3 728.3 532.7 771.2 527.2C814 521.7 857 509.3 878.5 503.2L900 497L900 601L878.5 601C857 601 814 601 771.2 601C728.3 601 685.7 601 642.8 601C600 601 557 601 514.2 601C471.3 601 428.7 601 385.8 601C343 601 300 601 257.2 601C214.3 601 171.7 601 128.8 601C86 601 43 601 21.5 601L0 601Z" fill="#fd9400"></path><path d="M0 557L21.5 557.7C43 558.3 86 559.7 128.8 556.5C171.7 553.3 214.3 545.7 257.2 542C300 538.3 343 538.7 385.8 543.5C428.7 548.3 471.3 557.7 514.2 561.7C557 565.7 600 564.3 642.8 558.2C685.7 552 728.3 541 771.2 538.2C814 535.3 857 540.7 878.5 543.3L900 546L900 601L878.5 601C857 601 814 601 771.2 601C728.3 601 685.7 601 642.8 601C600 601 557 601 514.2 601C471.3 601 428.7 601 385.8 601C343 601 300 601 257.2 601C214.3 601 171.7 601 128.8 601C86 601 43 601 21.5 601L0 601Z" fill="#fb8500"></path></svg>